<svg width="83" height="83" viewBox="0 0 83 83" fill="none" xmlns="http://www.w3.org/2000/svg">
<path fill-rule="evenodd" clip-rule="evenodd" d="M82.3195 41.4994C82.3195 64.0427 64.0445 82.319 41.4998 82.319C18.9565 82.319 0.680176 64.0427 0.680176 41.4994C0.680176 18.956 18.9565 0.679688 41.4998 0.679688C64.0445 0.679688 82.3195 18.956 82.3195 41.4994Z" stroke="#65AF54" stroke-linecap="round"/>
<path fill-rule="evenodd" clip-rule="evenodd" d="M56.7559 35.6875C56.7559 42.273 52.3569 47.5361 48.0967 47.5361C43.8379 47.5361 39.4375 42.4336 39.4375 35.8467C39.4375 26.4758 42.6759 23.9219 48.0967 23.9219C53.5176 23.9219 56.7559 26.4758 56.7559 35.6875Z" stroke="#65AF54" stroke-linecap="round"/>
<path d="M48.0973 53.0781C36.514 53.0781 26.6792 55.7559 26.6792 74.3288V78.6081" stroke="#65AF54" stroke-linecap="round"/>
<path d="M34.0776 67.8867V81.081" stroke="#65AF54" stroke-linecap="round"/>
<path d="M34.0778 72.0273H26.7344" stroke="#65AF54" stroke-linecap="round"/>
<path d="M48.1196 53.0781C58.7246 53.0781 68.5975 55.2674 69.3322 69.9571C69.3499 70.3068 69.3322 71.3585 69.3322 71.3585" stroke="#65AF54" stroke-linecap="round"/>
<path d="M62.1382 67.8867V76.135" stroke="#65AF54" stroke-linecap="round"/>
<path d="M62.1382 72.0273H68.5972" stroke="#65AF54" stroke-linecap="round"/>
<path d="M55.5189 31.6055H31.604" stroke="#65AF54" stroke-linecap="round"/>
<path d="M37.377 18.3086V23.3553" stroke="#65AF54" stroke-linecap="round"/>
<path d="M37.3769 23.3583L33.0024 19.0273" stroke="#65AF54" stroke-linecap="round"/>
<path d="M37.377 18.3111C43.8646 16.7083 47.0158 13.0794 48.2744 8.51579C48.7616 6.74966 49.0364 4.70459 49.0282 1.91797" stroke="#65AF54" stroke-linecap="round"/>
<path d="M12.2246 14.6289C15.0031 17.5026 19.8524 19.2347 28.3062 19.2347C30.0138 19.2347 31.5745 19.164 33.0018 19.0265" stroke="#65AF54" stroke-linecap="round"/>
<path d="M11.9082 14.2852C12.0103 14.4008 12.115 14.5151 12.2239 14.6267" stroke="#65AF54" stroke-linecap="round"/>
</svg>
