<svg width="55" height="55" viewBox="0 0 55 55" fill="none" xmlns="http://www.w3.org/2000/svg">
<circle cx="27.5" cy="27.5" r="27" fill="white" stroke="#C4C4C4"/>
<path d="M39 35.9102H33C32.2044 35.9102 31.4413 36.1838 30.8787 36.6708C30.3161 37.1578 30 37.8183 30 38.5071V40.2384H32V38.5071C32 38.2775 32.1054 38.0573 32.2929 37.895C32.4804 37.7326 32.7348 37.6414 33 37.6414H39C39.2652 37.6414 39.5196 37.7326 39.7071 37.895C39.8946 38.0573 40 38.2775 40 38.5071V40.2384H42V38.5071C42 37.8183 41.6839 37.1578 41.1213 36.6708C40.5587 36.1838 39.7956 35.9102 39 35.9102Z" fill="#AEAEAE"/>
<path d="M32 31.5798C32 32.2646 32.2346 32.9341 32.6741 33.5035C33.1136 34.0729 33.7384 34.5167 34.4693 34.7788C35.2002 35.0409 36.0044 35.1095 36.7804 34.9759C37.5563 34.8422 38.269 34.5125 38.8284 34.0282C39.3878 33.544 39.7688 32.927 39.9231 32.2553C40.0775 31.5836 39.9983 30.8874 39.6955 30.2547C39.3928 29.622 38.8801 29.0812 38.2223 28.7007C37.5645 28.3203 36.7911 28.1172 36 28.1172C34.9391 28.1172 33.9217 28.482 33.1716 29.1314C32.4214 29.7807 32 30.6614 32 31.5798ZM38 31.5798C38 31.9222 37.8827 32.2569 37.6629 32.5416C37.4432 32.8264 37.1308 33.0483 36.7654 33.1793C36.3999 33.3103 35.9978 33.3446 35.6098 33.2778C35.2219 33.211 34.8655 33.0461 34.5858 32.804C34.3061 32.5619 34.1156 32.2534 34.0384 31.9175C33.9613 31.5817 34.0009 31.2336 34.1522 30.9172C34.3036 30.6009 34.56 30.3305 34.8889 30.1403C35.2178 29.95 35.6044 29.8485 36 29.8485C36.5304 29.8485 37.0391 30.0309 37.4142 30.3556C37.7893 30.6803 38 31.1206 38 31.5798Z" fill="#AEAEAE"/>
<path d="M18 32.4477V31.582H16V32.4477C16 34.0548 16.7375 35.596 18.0503 36.7324C19.363 37.8688 21.1435 38.5072 23 38.5072H26V36.7759H23C21.6739 36.7759 20.4021 36.3199 19.4645 35.5082C18.5268 34.6965 18 33.5956 18 32.4477Z" fill="#AEAEAE"/>
<path d="M31 22.9258H38V24.657H31V22.9258Z" fill="#65AF54"/>
<path d="M31 19.4609H41V21.1923H31V19.4609Z" fill="#65AF54"/>
<path d="M31 16H41V17.7313H31V16Z" fill="#65AF54"/>
<path d="M23 23.7891H17C16.2044 23.7891 15.4413 24.0627 14.8787 24.5497C14.3161 25.0367 14 25.6972 14 26.386V28.1173H16V26.386C16 26.1564 16.1054 25.9362 16.2929 25.7739C16.4804 25.6116 16.7348 25.5203 17 25.5203H23C23.2652 25.5203 23.5196 25.6116 23.7071 25.7739C23.8946 25.9362 24 26.1564 24 26.386V28.1173H26V26.386C26 25.6972 25.6839 25.0367 25.1213 24.5497C24.5587 24.0627 23.7956 23.7891 23 23.7891Z" fill="#AEAEAE"/>
<path d="M20 22.9252C20.7911 22.9252 21.5645 22.7221 22.2223 22.3416C22.8801 21.9611 23.3928 21.4204 23.6955 20.7877C23.9983 20.155 24.0775 19.4587 23.9231 18.7871C23.7688 18.1154 23.3878 17.4984 22.8284 17.0142C22.269 16.5299 21.5563 16.2001 20.7804 16.0665C20.0044 15.9329 19.2002 16.0015 18.4693 16.2636C17.7384 16.5256 17.1136 16.9695 16.6741 17.5389C16.2346 18.1083 16 18.7778 16 19.4626C16 20.3809 16.4214 21.2616 17.1716 21.911C17.9217 22.5604 18.9391 22.9252 20 22.9252ZM20 17.7313C20.3956 17.7313 20.7822 17.8328 21.1111 18.0231C21.44 18.2133 21.6964 18.4837 21.8478 18.8C21.9991 19.1164 22.0387 19.4645 21.9616 19.8003C21.8844 20.1362 21.6939 20.4447 21.4142 20.6868C21.1345 20.9289 20.7781 21.0938 20.3902 21.1606C20.0022 21.2274 19.6001 21.1931 19.2346 21.0621C18.8692 20.9311 18.5568 20.7092 18.3371 20.4244C18.1173 20.1397 18 19.805 18 19.4626C18 19.0034 18.2107 18.5631 18.5858 18.2384C18.9609 17.9137 19.4696 17.7313 20 17.7313Z" fill="#AEAEAE"/>
</svg>
