<svg id="Layer_1" data-name="Layer 1" xmlns="http://www.w3.org/2000/svg" xmlns:xlink="http://www.w3.org/1999/xlink" viewBox="0 0 791.44 559.67"><defs><style>.cls-1{fill:url(#linear-gradient);}.cls-2{fill:#fefefe;}</style><linearGradient id="linear-gradient" x1="788.34" y1="484.82" x2="26.56" y2="87.1" gradientUnits="userSpaceOnUse"><stop offset="0" stop-color="#5ead51"/><stop offset="0.46" stop-color="#93cb47"/><stop offset="1" stop-color="#d1ee3e"/></linearGradient></defs><rect class="cls-1" width="791.44" height="559.67" rx="65.81"/><rect class="cls-2" x="439.36" y="445.71" width="283.13" height="61.89" rx="30.95" transform="translate(644.51 -285.78) rotate(90)"/><path class="cls-2" d="M926.29,574.42l-115.62-252a30.72,30.72,0,0,0-21.32-17.13,3.37,3.37,0,0,1-.34-.09,31.55,31.55,0,0,0-4.35-.56c-.76-.06-1.5-.15-2.25-.15l-.32,0c-.64,0-1.29.08-1.94.13a30.1,30.1,0,0,0-4.35.57l-.33.08a30.68,30.68,0,0,0-21.32,17.13l-20.18,44-95.44,208a30.84,30.84,0,0,0,15.17,40.9l.18.08a30.84,30.84,0,0,0,40.9-15.17l87.63-191,87.62,191a30.84,30.84,0,0,0,40.9,15.17l.18-.08A30.85,30.85,0,0,0,926.29,574.42Z" transform="translate(-413.07 -181.52)"/><path class="cls-2" d="M1156.08,574.42l-115.62-252a30.68,30.68,0,0,0-21.32-17.13l-.33-.09a31.69,31.69,0,0,0-4.36-.56c-.75-.06-1.5-.15-2.25-.15l-.31,0c-.65,0-1.29.08-1.94.13a30.42,30.42,0,0,0-4.36.57l-.33.08a30.7,30.7,0,0,0-21.32,17.13l-20.17,44L906.85,490.44l34,74.21,71.3-155.41,87.63,191a30.84,30.84,0,0,0,40.9,15.17l.18-.08A30.84,30.84,0,0,0,1156.08,574.42Z" transform="translate(-413.07 -181.52)"/><path class="cls-2" d="M489.63,304.49a30.95,30.95,0,1,0,0,61.89H716.94l-3-61.89Z" transform="translate(-413.07 -181.52)"/><path class="cls-2" d="M716.94,349.36l20.73-44.87c-.16.32-.4.57-.55.9Z" transform="translate(-413.07 -181.52)"/><path class="cls-2" d="M713.93,304.49l3,61.89,20.18-44c.15-.33.39-.59.55-.91l7.86-17Z" transform="translate(-413.07 -181.52)"/></svg>