<svg width="16" height="16" viewBox="0 0 16 16" fill="none" xmlns="http://www.w3.org/2000/svg">
<path d="M14.8 1.44308C14.4252 1.1297 13.986 0.902674 13.5137 0.778123C13.0413 0.653573 12.5472 0.634553 12.0667 0.722413L9.51867 1.18508C8.9304 1.29311 8.39553 1.59576 8 2.04441C7.60344 1.59499 7.06704 1.29227 6.47733 1.18508L3.93333 0.722413C3.45277 0.634476 2.95875 0.653247 2.48625 0.777397C2.01375 0.901548 1.57431 1.12804 1.19904 1.44085C0.823778 1.75366 0.521857 2.14513 0.314655 2.58755C0.107452 3.02998 3.25416e-05 3.51254 0 4.00108L0 11.1964C3.83039e-05 11.9769 0.273984 12.7327 0.774089 13.332C1.27419 13.9313 1.96874 14.336 2.73667 14.4757L6.92733 15.2377C7.63664 15.3666 8.36336 15.3666 9.07267 15.2377L13.2667 14.4757C14.034 14.3353 14.7278 13.9303 15.2272 13.3311C15.7266 12.7319 16.0001 11.9765 16 11.1964V4.00108C16.0003 3.51271 15.8929 3.03028 15.6855 2.58814C15.4781 2.146 15.1758 1.75504 14.8 1.44308ZM7.33333 13.9531C7.27733 13.9451 7.22133 13.9357 7.16533 13.9257L2.97533 13.1644C2.51451 13.0806 2.09773 12.8377 1.79766 12.478C1.49759 12.1184 1.33326 11.6648 1.33333 11.1964V4.00108C1.33333 3.47065 1.54405 2.96194 1.91912 2.58687C2.29419 2.21179 2.8029 2.00108 3.33333 2.00108C3.45406 2.00137 3.57453 2.0123 3.69333 2.03375L6.24 2.50041C6.54641 2.55648 6.82351 2.71806 7.02323 2.95711C7.22294 3.19616 7.33266 3.49759 7.33333 3.80908V13.9531ZM14.6667 11.1964C14.6667 11.6648 14.5024 12.1184 14.2023 12.478C13.9023 12.8377 13.4855 13.0806 13.0247 13.1644L8.83467 13.9257C8.77867 13.9357 8.72267 13.9451 8.66667 13.9531V3.80908C8.66662 3.49682 8.77617 3.19445 8.97622 2.95469C9.17626 2.71492 9.45412 2.55297 9.76133 2.49708L12.3087 2.03041C12.5971 1.97793 12.8936 1.98951 13.1771 2.06435C13.4606 2.13919 13.7242 2.27545 13.9492 2.46348C14.1742 2.65151 14.3551 2.88672 14.4791 3.15243C14.6031 3.41814 14.6671 3.70787 14.6667 4.00108V11.1964Z" fill="white"/>
</svg>
