<svg width="20" height="20" viewBox="0 0 20 20" fill="none" xmlns="http://www.w3.org/2000/svg">
<path d="M1.24031 8.10656L2.84439 7.75063C2.96939 7.35063 3.13314 6.96781 3.32096 6.59971L2.45316 5.15377C2.1291 4.63596 1.96535 3.87408 2.45316 3.38596L3.33754 2.50221C3.82535 2.01408 4.64908 2.10189 5.14658 2.44689L6.55346 3.34312C6.91848 3.15375 7.30004 2.99156 7.6966 2.86344L8.05658 1.24C8.16408 0.644707 8.68471 0 9.37502 0H10.625C11.3153 0 11.7385 0.654375 11.875 1.25L12.276 2.85406C12.6994 2.98906 13.106 3.16156 13.4935 3.36594L14.9356 2.4475C15.4328 2.1025 16.2569 2.01469 16.7447 2.50281L17.6288 3.38656C18.1169 3.875 17.9531 4.63656 17.6288 5.15438L16.7156 6.67625C16.8869 7.02125 17.0388 7.37812 17.156 7.75094L18.7597 8.10687C19.3553 8.21406 20 8.73469 20 9.425V10.675C20 11.3653 19.3456 11.7884 18.75 11.925L17.1259 12.3309C17.0137 12.6753 16.8734 13.0059 16.7147 13.3266L17.6288 14.85C17.9528 15.3675 18.1165 16.1294 17.6288 16.6175L16.7444 17.5013C16.2566 17.9897 15.4328 17.9016 14.9353 17.5569L13.49 16.6359C13.1003 16.8415 12.6916 17.0156 12.2653 17.1503L11.8653 18.75C11.7285 19.3456 11.3056 20 10.6153 20H9.36533C8.67502 20 8.15439 19.3553 8.04689 18.7597L7.68627 17.1319C7.29377 17.005 6.91721 16.845 6.55658 16.6581L5.14658 17.5566C4.64908 17.9016 3.82502 17.9894 3.33752 17.5009L2.45312 16.6172C1.96531 16.1287 2.12906 15.3672 2.45312 14.8497L3.32154 13.4019C3.14685 13.0588 2.99561 12.7019 2.87404 12.3306L1.25 11.925C0.654375 11.7881 0 11.3653 0 10.675V9.425C0 8.73469 0.644375 8.21406 1.24031 8.10656ZM1.24939 10.5869C1.30252 10.625 1.40256 10.6774 1.52943 10.7068L3.84693 11.2855L4.06193 11.9424C4.1591 12.2383 4.28473 12.5387 4.43535 12.8352L4.7491 13.4518L3.52473 15.4933C3.4466 15.6183 3.41004 15.7302 3.3991 15.7961L4.22129 16.6171C4.30066 16.5921 4.39098 16.5596 4.43441 16.5299L6.49191 15.2177L7.1316 15.5487C7.43973 15.7087 7.756 15.8412 8.071 15.943L8.75225 16.1634L9.26725 18.4899C9.291 18.6143 9.35756 18.7146 9.40318 18.7505H10.5282C10.5663 18.6974 10.6185 18.5974 10.6476 18.4709L11.2229 16.1699L11.8888 15.9587C12.2319 15.8505 12.5741 15.7065 12.9072 15.5308L13.55 15.1915L15.6078 16.503C15.6919 16.5599 15.7819 16.5921 15.8635 16.5921L16.6831 15.7943C16.6722 15.7296 16.6381 15.6228 16.57 15.5137L15.2916 13.3837L15.5956 12.7715C15.7375 12.4828 15.85 12.2118 15.9375 11.9434L16.1522 11.2859L18.4469 10.7121C18.5913 10.6793 18.6957 10.6255 18.75 10.5871V9.42492C18.7494 9.42523 18.7485 9.42555 18.7472 9.42555C18.7263 9.42555 18.6235 9.3524 18.5378 9.3368L16.18 8.81459L15.9635 8.12553C15.8754 7.8449 15.755 7.5524 15.596 7.23148L15.2919 6.61898L16.5569 4.51117C16.6353 4.38555 16.6716 4.27367 16.6825 4.20805L15.8606 3.38646C15.781 3.41209 15.6913 3.44428 15.6481 3.47396L13.5522 4.8099L12.91 4.47115C12.5803 4.29742 12.2394 4.15398 11.8963 4.04492L11.2319 3.83336L10.6619 1.55275C10.6288 1.4084 10.5757 1.30402 10.5369 1.24963H9.375C9.38346 1.26246 9.30313 1.3715 9.28658 1.46184L8.76158 3.83309L8.08096 4.05309C7.76189 4.15621 7.44127 4.29059 7.12939 4.45246L6.48971 4.78465L4.47502 3.50121C4.39064 3.44369 4.30033 3.41184 4.21939 3.41184L3.39908 4.20902C3.41002 4.27402 3.4444 4.38121 3.51252 4.49059L4.74971 6.5509L4.43408 7.1684C4.26377 7.50152 4.13377 7.81402 4.03721 8.12402L3.82127 8.81434L1.51094 9.32715C1.37123 9.35309 1.26248 9.43371 1.23936 9.47746L1.24939 10.5869ZM9.9916 6.24363C12.0672 6.24363 13.756 7.92895 13.756 9.99988C13.756 12.0705 12.0672 13.7558 9.9916 13.7558C7.91598 13.7558 6.22723 12.0705 6.22723 9.99988C6.22723 7.92895 7.91598 6.24363 9.9916 6.24363ZM10 12.4999C11.3785 12.4999 12.5 11.3783 12.5 9.99988C12.5 8.62113 11.3785 7.49988 10 7.49988C8.62129 7.49988 7.50004 8.62113 7.50004 9.99988C7.50004 11.3783 8.6216 12.4999 10 12.4999Z" fill="black"/>
</svg>
