<svg width="18" height="18" viewBox="0 0 18 18" fill="none" xmlns="http://www.w3.org/2000/svg">
<path d="M8.99985 0C4.0294 0 0 4.02947 0 9C0 13.9708 4.0294 18 8.99985 18C13.9706 18 18 13.9708 18 9C18 4.02947 13.9706 0 8.99985 0ZM8.99985 16.8927C4.6577 16.8927 1.12498 13.3422 1.12498 8.99996C1.12498 4.65775 4.6577 1.12496 8.99985 1.12496C13.342 1.12496 16.875 4.65776 16.875 8.99996C16.875 13.3422 13.342 16.8927 8.99985 16.8927V16.8927ZM8.17271 14.0709H9.58794V12.6427H8.17271V14.0709ZM8.98326 3.92933C8.15921 3.92933 7.4803 4.15151 6.94706 4.59534C6.41382 5.03942 6.15451 5.92873 6.16773 6.66561L6.18854 6.70667H7.47946C7.47946 6.26708 7.62599 5.63539 7.91904 5.4087C8.21182 5.18229 8.56675 5.06895 8.98356 5.06895C9.46392 5.06895 9.8332 5.19945 10.0922 5.46043C10.351 5.72143 10.4801 6.09465 10.4801 6.57953C10.4801 6.98706 10.3844 7.33497 10.1923 7.62325C9.9997 7.91153 9.67683 8.32358 9.22402 8.85938C8.75687 9.28067 8.46832 9.6193 8.35863 9.87551C8.24866 10.132 8.19157 10.5921 8.18735 11.2556H9.54014C9.54014 10.8394 9.56656 10.5325 9.61917 10.3356C9.67146 10.139 9.82139 9.91687 10.0686 9.66964C10.5999 9.1572 11.0265 8.65601 11.3497 8.16581C11.672 7.67614 11.8334 7.13586 11.8334 6.54523C11.8334 5.72117 11.5842 5.07908 11.085 4.61923C10.5855 4.15911 9.88493 3.92933 8.98326 3.92933Z" fill="black"/>
</svg>
