<svg width="17" height="17" viewBox="0 0 17 17" fill="none" xmlns="http://www.w3.org/2000/svg">
<g clip-path="url(#clip0_840_46436)">
<path d="M3.89572 12.043C4.48252 12.043 4.95822 11.5673 4.95822 10.9805C4.95822 10.3937 4.48252 9.91797 3.89572 9.91797C3.30892 9.91797 2.83322 10.3937 2.83322 10.9805C2.83322 11.5673 3.30892 12.043 3.89572 12.043Z" fill="black"/>
<path d="M13.4583 2.125H3.54167C2.6027 2.12612 1.70252 2.49962 1.03857 3.16357C0.374625 3.82752 0.00112473 4.7277 0 5.66667L0 11.3333C0.00112473 12.2723 0.374625 13.1725 1.03857 13.8364C1.70252 14.5004 2.6027 14.8739 3.54167 14.875H13.4583C14.3973 14.8739 15.2975 14.5004 15.9614 13.8364C16.6254 13.1725 16.9989 12.2723 17 11.3333V5.66667C16.9989 4.7277 16.6254 3.82752 15.9614 3.16357C15.2975 2.49962 14.3973 2.12612 13.4583 2.125ZM3.54167 3.54167H13.4583C14.0219 3.54167 14.5624 3.76555 14.9609 4.16406C15.3595 4.56258 15.5833 5.10308 15.5833 5.66667H1.41667C1.41667 5.10308 1.64055 4.56258 2.03906 4.16406C2.43758 3.76555 2.97808 3.54167 3.54167 3.54167ZM13.4583 13.4583H3.54167C2.97808 13.4583 2.43758 13.2345 2.03906 12.8359C1.64055 12.4374 1.41667 11.8969 1.41667 11.3333V7.08333H15.5833V11.3333C15.5833 11.8969 15.3595 12.4374 14.9609 12.8359C14.5624 13.2345 14.0219 13.4583 13.4583 13.4583Z" fill="black"/>
</g>
<defs>
<clipPath id="clip0_840_46436">
<rect width="17" height="17" fill="white"/>
</clipPath>
</defs>
</svg>
