<svg width="57" height="57" viewBox="0 0 57 57" fill="none" xmlns="http://www.w3.org/2000/svg">
<path d="M28.5 57C12.7599 57 0 44.2401 0 28.5C0 12.7599 12.7599 0 28.5 0C44.2401 0 57 12.7599 57 28.5C56.9833 44.2331 44.2332 56.9832 28.5 57ZM40.5025 27.5919C40.3052 27.1961 39.9844 26.8753 39.5885 26.678V26.6679L23.3028 18.5249C22.2971 18.0224 21.0744 18.4302 20.5718 19.436C20.4289 19.7219 20.3553 20.0375 20.3571 20.3571V36.6428C20.3566 37.7671 21.2676 38.6789 22.3919 38.6795C22.7081 38.6796 23.02 38.6061 23.3028 38.4648L39.5885 30.3219C40.5948 29.8204 41.004 28.5982 40.5025 27.5919Z" fill="#0E9106"/>
</svg>
